<?xml version="1.0" standalone="no"?><!DOCTYPE svg PUBLIC "-//W3C//DTD SVG 1.1//EN" "http://www.w3.org/Graphics/SVG/1.1/DTD/svg11.dtd"><svg t="1612582233631" class="icon" viewBox="0 0 1024 1024" version="1.1" xmlns="http://www.w3.org/2000/svg" p-id="19467" xmlns:xlink="http://www.w3.org/1999/xlink" width="128" height="128"><defs><style type="text/css"></style></defs><path d="M692.471816 486.377436c4.301979-4.372587 8.498558-8.908904 12.579503-13.617136 32.30987 13.012362 143.094022 48.390104 253.881245-23.680329 0 0-163.313529 24.690332-208.090339-45.409213 0.194428-0.387833 0.396019-0.76748 0.590448-1.156336 0 0-0.277316 0.284479-0.805342 0.817622-0.171915-0.272199-0.347924-0.541329-0.515746-0.817622l-6.086625 7.394411c-19.632129 19.299555-53.800323 57.44841-111.781876 84.179214-52.454676 24.183795-122.68725 34.041304-180.38944 33.719986-142.649907-0.795109-203.443505-79.147618-237.322104-101.876272-30.973432-16.756639-33.667797-27.940352-73.27384-9.152451-52.705386 25.001417-77.162404 88.324628-77.162404 88.324628 77.162404-31.647791 132.306328-7.498788 146.594753 2.439562 0.839111 0.61296 1.674129 1.233084 2.518357 1.837858 0.001023 0 0.00921 0.007163 0.00921 0.007163l0 0c11.330046 8.115841 23.190165 15.528672 35.512818 22.24463-11.234879 40.145325-54.949496 58.926064-54.949496 58.926064 53.843302-8.355295 80.104409-30.210046 90.684372-41.957601 47.251164 19.334347 99.889011 29.366841 155.384953 29.366841 40.467667 0 77.972862-4.201695 112.344694-12.961196 9.099239 13.408381 38.169321 45.144176 112.451118 51.919487 0 0-60.950164-19.509333-59.332317-70.261227 9.115612-4.071735 17.954931-8.552793 26.505677-13.459546 14.894222 13.268188 68.723198 50.650587 195.480136 42.011836C827.299571 575.215764 715.44811 558.36805 692.471816 486.377436z" p-id="19468" fill="#dbdbdb"></path></svg>